<svg xmlns="http://www.w3.org/2000/svg" width="354.338" height="110.288" viewBox="0 0 354.338 110.288">
  <g id="Group_12" data-name="Group 12" transform="translate(-69.77 -600)">
    <g id="Group_1" data-name="Group 1" transform="translate(-754.774 69.042)">
      <rect id="Rectangle_4" data-name="Rectangle 4" width="31.194" height="31.194" transform="translate(868.659 553.016) rotate(45)" fill="#0073d8" opacity="0.6"/>
      <path id="Rectangle_11" data-name="Rectangle 11" d="M0,0H31.194V31.194H4a4,4,0,0,1-4-4Z" transform="translate(846.602 575.073) rotate(45)" fill="#0073d8" opacity="0.8"/>
      <rect id="Rectangle_7" data-name="Rectangle 7" width="31.194" height="31.194" transform="translate(912.774 553.016) rotate(45)" fill="#0073d8" opacity="0.6"/>
      <rect id="Rectangle_9" data-name="Rectangle 9" width="31.194" height="31.194" transform="translate(890.716 575.073) rotate(45)" fill="#0073d8" opacity="0.8"/>
      <path id="Rectangle_13" data-name="Rectangle 13" d="M0,0H31.194V27.194a4,4,0,0,1-4,4H0Z" transform="translate(912.774 597.131) rotate(45)" fill="#0073d8"/>
      <path id="Rectangle_14" data-name="Rectangle 14" d="M0,0H31.194V27.194a4,4,0,0,1-4,4H0Z" transform="translate(868.659 597.131) rotate(45)" fill="#0073d8"/>
      <path id="Rectangle_15" data-name="Rectangle 15" d="M0,0H31.194V27.194a4,4,0,0,1-4,4H0Z" transform="translate(956.889 597.131) rotate(45)" fill="#0073d8"/>
      <rect id="Rectangle_10" data-name="Rectangle 10" width="31.194" height="31.194" transform="translate(934.831 575.073) rotate(45)" fill="#0073d8" opacity="0.8"/>
      <path id="Rectangle_12" data-name="Rectangle 12" d="M0,0H27.194a4,4,0,0,1,4,4V31.194H0Z" transform="translate(978.946 575.073) rotate(45)" fill="#0073d8" opacity="0.8"/>
      <rect id="Rectangle_8" data-name="Rectangle 8" width="31.194" height="31.194" transform="translate(956.889 553.016) rotate(45)" fill="#0073d8" opacity="0.6"/>
      <path id="Rectangle_5" data-name="Rectangle 5" d="M3,0H31.194V31.194H0V3A3,3,0,0,1,3,0Z" transform="translate(890.716 530.958) rotate(45)" fill="#0073d8" opacity="0.4"/>
      <path id="Rectangle_6" data-name="Rectangle 6" d="M3,0H31.194V31.194H0V3A3,3,0,0,1,3,0Z" transform="translate(934.831 530.958) rotate(45)" fill="#0073d8" opacity="0.4"/>
    </g>
    <path id="Path_195" data-name="Path 195" d="M35.068,0H5.4V-49.971H35.068v10.835H18.9v7.861H33.872v10.835H18.9v9.434H35.068ZM56.4,0H43.032V-53.184H56.4Zm22.7,0H65.728V-38.726H79.092ZM65.386-48.364a5.646,5.646,0,0,1,1.675-4.478q1.675-1.47,5.4-1.47t5.435,1.5A5.605,5.605,0,0,1,79.6-48.364q0,5.879-7.144,5.879Q65.386-42.485,65.386-48.364ZM107.393-9.878a19.876,19.876,0,0,0,6.46-1.333V-1.47A26.3,26.3,0,0,1,108.708.188a29.106,29.106,0,0,1-5.725.5q-6.733,0-9.707-3.3T90.3-12.749V-28.711H85.62v-5.435l5.947-4.2,3.452-8.135h8.75v7.759h9.5v10.015h-9.5v15.073Q103.77-9.878,107.393-9.878ZM139.316.684q-9.673,0-15.022-5.144t-5.349-14.646q0-9.81,4.956-15.056t14.15-5.247q8.75,0,13.518,4.563T156.338-21.7v5.947H132.446a6.628,6.628,0,0,0,2.375,5.093,9.307,9.307,0,0,0,6.1,1.846,29.46,29.46,0,0,0,6.477-.667,32.085,32.085,0,0,0,6.409-2.273v9.6A23.579,23.579,0,0,1,147.314.068,44.939,44.939,0,0,1,139.316.684Zm-.786-31a5.557,5.557,0,0,0-3.948,1.487,6.98,6.98,0,0,0-1.863,4.666H144.2a6.66,6.66,0,0,0-1.589-4.478A5.246,5.246,0,0,0,138.53-30.317Z" transform="translate(267.77 690)" fill="#0c0d0d"/>
  </g>
</svg>
